<?xml version="1.0" encoding="iso-8859-1"?>
<!-- Generator: Adobe Illustrator 18.0.0, SVG Export Plug-In . SVG Version: 6.00 Build 0)  -->
<!DOCTYPE svg PUBLIC "-//W3C//DTD SVG 1.1//EN" "http://www.w3.org/Graphics/SVG/1.1/DTD/svg11.dtd">
<svg version="1.1" id="Capa_1" xmlns="http://www.w3.org/2000/svg" xmlns:xlink="http://www.w3.org/1999/xlink" x="0px" y="0px"
	 viewBox="0 0 452.363 452.363" style="enable-background:new 0 0 452.363 452.363;" xml:space="preserve">
<g id="XMLID_6_">
	<path id="XMLID_93_" d="M264.441,326.989l-19.231-26.496l-30.51-42.036c-12.234,0-24.161,0-32.315,0
		c-2.598,0-5.064-1.156-6.737-3.144s-2.386-4.61-1.947-7.17l3.898-22.685l-17.061-8.285l-13.835,71.431
		c-0.566,2.925,0.204,5.949,2.099,8.248c1.895,2.299,4.719,3.641,7.699,3.641c3.869,0,8.511,0,13.708,0v130.313
		c0,11.906,9.652,21.558,21.558,21.558s21.558-9.651,21.558-21.558V300.493c3.099,0,6.209,0,9.308,0v130.313
		c0,11.906,9.652,21.558,21.558,21.558c11.906,0,21.558-9.651,21.558-21.558v-58.478
		C258.055,358.225,257.66,341.316,264.441,326.989z"/>
	<circle id="XMLID_1140_" cx="217.979" cy="37.232" r="37.232"/>
	<path id="XMLID_1141_" d="M244.04,132.089c5.115,41.814,3.388,29.758,7.636,54.483l14.987-14.607
		c-2.752-14.207-2.007-9.629-3.218-19.534c3.401,8.447,7.12,17.36,10.601,26.352l-42.394,41.318
		c-7.105,6.925-7.251,18.299-0.327,25.404c6.924,7.104,18.298,7.252,25.404,0.326l50.788-49.5
		c5.042-4.915,6.749-12.323,4.364-18.948c-7.643-21.237-16.264-40.01-21.243-54.501c-6.708-19.519-17.072-31.288-30.884-35.142
		C250.275,114.492,249.449,116.823,244.04,132.089z"/>
	<polygon id="XMLID_1142_" points="286.838,276.128 279.404,237.747 267.442,249.405 	"/>
	<polygon id="XMLID_1143_" points="339.527,329.994 338.954,329.206 339.526,329.994 	"/>
	<path id="XMLID_1144_" d="M321.508,315.47c-7.68-2.762-16.41-2.84-24.444,0.258c-0.005,0.002-0.01,0.003-0.014,0.005
		l-41.496-57.171c-6.899,3.062-14.87,3.244-22.02,0.306c0,0-0.001,0-0.001,0l48.948,67.44c-4.025,4.919-6.827,11.238-7.616,18.11
		c-1.233,10.7,1.881,18.249,8.011,26.695l56.65-41.118C335.662,324.664,331.202,319.016,321.508,315.47z"/>
	<path id="XMLID_1145_" d="M366.155,366.682l-18.405-25.358l-56.65,41.118l-0.001-0.001l18.406,25.359
		c0.002,0.002,0.004,0.004,0.006,0.007c5.325,7.305,26.183-4.08,33.691-9.261C356.964,389.026,370.925,373.255,366.155,366.682z"/>
	<path id="XMLID_1146_" d="M213.798,210.243c4.334-8.925,0.612-19.674-8.313-24.008c0,0-44.041-21.596-44.132-21.642
		c19.939-32.616,17.528-28.548,20.225-33.486l8.951,12.332l1.262-10.315c-7.065-19.937-7.9-22.292-16.033-45.243
		c-7.514,2.268-12.837,6.784-16.923,11.891c-3.531,4.413-6.113,9.211-8.576,13.721l-48.721-67.125
		c-2.847-3.923-8.48-4.959-12.562-2.002c-0.003,0.002-0.006,0.003-0.008,0.005c-4.022,2.92-4.917,8.548-1.997,12.57l53.321,73.464
		c-5.874,9.489-13.066,20.661-19.094,29.829c-7.974,12.127-3.802,23.169,5.933,27.896l62.659,30.428
		C198.719,222.891,209.465,219.164,213.798,210.243z"/>
	<path id="XMLID_1147_" d="M245.402,86.332h-55.339c3.084,8.701,12.143,34.264,15.593,44.001c9.402,0,15.743,0,24.153,0
		C233.273,120.558,242.391,94.828,245.402,86.332z"/>
</g>
<g>
</g>
<g>
</g>
<g>
</g>
<g>
</g>
<g>
</g>
<g>
</g>
<g>
</g>
<g>
</g>
<g>
</g>
<g>
</g>
<g>
</g>
<g>
</g>
<g>
</g>
<g>
</g>
<g>
</g>
</svg>
