<?xml version='1.0' encoding='iso-8859-1'?>
<!DOCTYPE svg PUBLIC '-//W3C//DTD SVG 1.1//EN' 'http://www.w3.org/Graphics/SVG/1.1/DTD/svg11.dtd'>
<svg version="1.1" xmlns="http://www.w3.org/2000/svg" viewBox="0 0 315 315" xmlns:xlink="http://www.w3.org/1999/xlink" enable-background="new 0 0 315 315">
  <path d="m292.617,146.484h-3.105v-51.322c0-17.997-14.642-32.639-32.638-32.639h-198.748c-17.996,0-32.638,14.642-32.638,32.639v51.322h-3.106c-12.341,0-22.382,10.041-22.382,22.383v33.162c0,12.342 10.041,22.383 22.383,22.383h27.672v21.064c0,3.866 3.134,7 7,7s7-3.134 7-7v-21.064h186.891v21.064c0,3.866 3.134,7 7,7 3.866,0 7-3.134 7-7v-21.064h27.672c12.342,0 22.383-10.041 22.383-22.383v-33.162c-0.001-12.342-10.042-22.383-22.384-22.383zm-253.129-51.322c0-10.277 8.36-18.639 18.638-18.639h198.748c10.277,0 18.638,8.361 18.638,18.639v51.322h-8.974v-14.057c0-8.964-7.292-16.256-16.255-16.256h-71.754c-8.965,0-16.258,7.292-16.258,16.256v14.057h-9.543v-14.057c0-8.964-7.293-16.256-16.258-16.256h-71.753c-8.963,0-16.255,7.292-16.255,16.256v14.057h-8.974v-51.322zm136.783,51.322v-14.057c0-1.223 1.034-2.256 2.258-2.256h71.754c1.223,0 2.255,1.033 2.255,2.256v14.057h-76.267zm-113.809,0v-14.057c0-1.223 1.032-2.256 2.255-2.256h71.754c1.224,0 2.258,1.033 2.258,2.256v14.057h-76.267zm238.538,55.545c0,4.622-3.761,8.383-8.383,8.383h-270.234c-4.622,0-8.383-3.761-8.383-8.383v-33.162c0-4.622 3.761-8.383 8.383-8.383h270.234c4.622,0 8.383,3.761 8.383,8.383v33.162z"/>
</svg>
